# xmcd
#
# Track frame offsets:
# 150
# 19534
# 33433
# 47772
# 63134
# 78284
# 96624
# 109263
# 123229
# 137215
# 155170
# 177011
# 198565
# 215361
# 232239
# 250286
# 263758
# 281104
# 293423
# 303875
#
# Disc length: 4331 seconds
#
#
# Revision: 1
# Processed by: cddbd v1.5.2PL0 Copyright (c) Steve Scherf et al.
# Submitted via: FreeRIP 2.90 
#
DISCID=2110e914
DTITLE=Angela Similea - Muzica de colectie
DYEAR=2007
DGENRE=Ballad
TTITLE0=Bunã ziua, dragoste!
TTITLE1=Ce loc mai am în viata ta
TTITLE2=Hai sã ne-mpãcãm!
TTITLE3=De dragul tãu
TTITLE4=Fericirea trãieste în noi
TTITLE5=E mare lucru sã fii om
TTITLE6=Iubeste-mã mereu!
TTITLE7=Noapte bunã, Bucuresti!
TTITLE8=Nu stii ce vrei
TTITLE9=Sã nu juri cã mã iubesti
TTITLE10=Bun venit, razã de soare
TTITLE11=Cântec pentru mama
TTITLE12=Nesuferita tristete
TTITLE13=Nu privi înapoi
TTITLE14=Ploaia si noi
TTITLE15=Sanie cu zurgãlãi
TTITLE16=Legendele mãrii
TTITLE17=Hai sã cântãm!
TTITLE18=Carnaval
TTITLE19=Azi
EXTD=Jurnalul National vol.30
EXTT0=
EXTT1=
EXTT2=
EXTT3=
EXTT4=
EXTT5=
EXTT6=
EXTT7=
EXTT8=
EXTT9=
EXTT10=
EXTT11=
EXTT12=
EXTT13=
EXTT14=
EXTT15=
EXTT16=
EXTT17=
EXTT18=
EXTT19=
PLAYORDER=
